HIERARCHY
ROOT Hips
{
	OFFSET 0.00 0.00 0.00
	CHANNELS 6 Xposition Yposition Zposition Xrotation Yrotation Zrotation
	JOINT Spine
	{
		OFFSET 0.00000 4.88528 0.00000
		CHANNELS 3 Xrotation Yrotation Zrotation
		JOINT Head
		{
			OFFSET 0.00000 16.49416 0.00000
			CHANNELS 3 Xrotation Yrotation Zrotation
			End Site
			{
				OFFSET 0.00000 4.52755 0.00000
			}
		}
		JOINT LeftShoulder
		{
			OFFSET 0.00000 10.66345 0.00000
			CHANNELS 3 Xrotation Yrotation Zrotation
			JOINT LeftArm
			{
				OFFSET 7.53191 0.00000 0.00000
				CHANNELS 3 Xrotation Yrotation Zrotation
				JOINT LeftForeArm
				{
					OFFSET 10.22920 0.00000 0.00000
					CHANNELS 3 Yrotation Zrotation Xrotation
					JOINT LeftHand
					{
						OFFSET 8.67349 0.00000 0.00000
						CHANNELS 3 Xrotation Yrotation Zrotation
						JOINT LeftHandThumb1
						{
							OFFSET 0.00000 0.00000 0.00000
							CHANNELS 3 Xrotation Zrotation Yrotation
							End Site
							{
								OFFSET 0.00000 0.00000 3.93700
							}
						}
						End Site
						{
							OFFSET 3.93700 0.00000 0.00000
						}
					}
				}
			}
		}
		JOINT RightShoulder
		{
			OFFSET 0.00000 10.66345 0.00000
			CHANNELS 3 Xrotation Yrotation Zrotation
			JOINT RightArm
			{
				OFFSET -7.53191 0.00000 0.00000
				CHANNELS 3 Xrotation Yrotation Zrotation
				JOINT RightForeArm
				{
					OFFSET -10.22920 0.00000 0.00000
					CHANNELS 3 Yrotation Zrotation Xrotation
					JOINT RightHand
					{
						OFFSET -8.67349 0.00000 0.00000
						CHANNELS 3 Xrotation Yrotation Zrotation
						JOINT RightHandThumb1
						{
							OFFSET 0.00000 0.00000 0.00000
							CHANNELS 3 Xrotation Zrotation Yrotation
							End Site
							{
								OFFSET 0.00000 0.00000 3.93700
							}
						}
						End Site
						{
							OFFSET -3.93700 0.00000 0.00000
						}
					}
				}
			}
		}
	}
	JOINT LeftUpLeg
	{
		OFFSET 2.67219 0.00000 0.00000
		CHANNELS 3 Xrotation Yrotation Zrotation
		JOINT LeftLeg
		{
			OFFSET 0.00000 -16.26339 0.00000
			CHANNELS 3 Xrotation Yrotation Zrotation
			JOINT LeftFoot
			{
				OFFSET 0.00000 -14.32816 0.00000
				CHANNELS 3 Xrotation Yrotation Zrotation
				JOINT LeftToeBase
				{
					OFFSET 0.00000 -1.30219 4.85985
					CHANNELS 3 Xrotation Yrotation Zrotation
					End Site
					{
						OFFSET 0.00000 0.00000 2.95275
					}
				}
			}
		}
	}
	JOINT RightUpLeg
	{
		OFFSET -2.67219 0.00000 0.00000
		CHANNELS 3 Xrotation Yrotation Zrotation
		JOINT RightLeg
		{
			OFFSET 0.00000 -16.26339 0.00000
			CHANNELS 3 Xrotation Yrotation Zrotation
			JOINT RightFoot
			{
				OFFSET 0.00000 -14.32816 0.00000
				CHANNELS 3 Xrotation Yrotation Zrotation
				JOINT RightToeBase
				{
					OFFSET 0.00000 -1.30219 4.85985
					CHANNELS 3 Xrotation Yrotation Zrotation
					End Site
					{
						OFFSET 0.00000 0.00000 2.95275
					}
				}
			}
		}
	}
}
MOTION
Frames: 11
Frame Time: 0.008333
 -0.7448 32.8962 0.5078 3.3301 2.5957 -1.3478 -6.8665 -6.0173 -1.1692 16.0843 0.0938 -0.0781 35.5141 34.9330 16.3959 -76.1893 -3.4512 -29.0462 4.0473 0.0000 10.4198 0.5543 -3.9506 7.9933 33.1476 -0.0000 26.2537 -7.2422 -6.3803 -31.8721 -18.7273 5.1325 35.7787 -0.0472 -0.0000 17.7195 0.0459 1.8886 -1.3910 32.8623 0.0000 -24.3270 4.5127 -5.0168 0.9343 -4.4059 -0.0000 -0.0000 -2.3883 11.9922 -15.0634 -10.0565 -0.0000 0.0000 4.8174 0.4911 4.3649 -4.9251 0.0000 0.0000 -3.9558 -14.8252 4.0784 -3.7803 -0.0000 0.0000
 -0.7430 32.8950 0.5070 3.3147 2.6081 -1.3229 -6.8308 -6.0499 -1.1936 16.0824 0.1233 -0.0652 35.5376 34.9604 16.4026 -76.1855 -3.4235 -29.0247 4.0822 0.0000 10.3946 0.5334 -3.9403 7.7151 33.1476 -0.0000 26.2537 -7.2594 -6.3451 -31.8533 -18.6838 5.1869 35.7326 -0.0616 -0.0000 17.7187 0.0435 1.8599 -1.3411 32.8623 0.0000 -24.3270 4.5172 -5.0338 0.9088 -4.3910 0.0000 -0.0000 -2.3988 11.9918 -15.0769 -10.0076 0.0000 -0.0000 4.8054 0.5184 4.3371 -4.8629 0.0000 0.0000 -4.0453 -14.8635 4.0769 -3.7261 -0.0000 -0.0000
 -0.7407 32.8943 0.5060 3.2881 2.6252 -1.2994 -6.7762 -6.0383 -1.2185 16.0816 0.1066 -0.0235 35.5010 34.9584 16.4675 -76.1124 -3.4431 -29.0226 4.1383 0.0000 10.3074 0.5290 -3.9292 7.6739 33.1476 -0.0000 26.2537 -7.2900 -6.3684 -31.8190 -18.6475 5.3031 35.6593 -0.1466 -0.0000 17.6800 0.0418 1.9688 -1.2152 32.8623 0.0000 -24.3270 4.5230 -5.0329 0.8822 -4.3529 0.0000 0.0000 -2.4151 11.9531 -15.1028 -10.0363 0.0000 0.0000 4.8106 0.5591 4.3065 -4.8137 -0.0000 0.0000 -4.1121 -14.9096 4.0943 -3.7343 -0.0000 0.0000
 -0.7383 32.8934 0.5050 3.2606 2.6435 -1.2813 -6.7254 -6.0285 -1.2319 16.1221 0.0819 -0.0114 35.4299 34.9229 16.5726 -76.1314 -3.3337 -28.9966 4.1437 0.0000 10.3796 0.5069 -3.8135 7.5776 33.1476 -0.0000 26.2537 -7.2983 -6.3847 -31.8059 -18.6449 5.3666 35.5954 -0.1875 -0.0000 17.6788 0.0387 1.9346 -1.1451 32.8623 0.0000 -24.3270 4.5329 -5.0141 0.8608 -4.3321 -0.0000 -0.0000 -2.4251 11.9483 -15.1181 -9.9816 0.0000 0.0000 4.8089 0.5703 4.2822 -4.7427 0.0000 0.0000 -4.2046 -14.9207 4.1216 -3.6642 -0.0000 0.0000
 -0.7358 32.8924 0.5037 3.2409 2.6617 -1.2664 -6.6795 -6.0405 -1.2419 16.1518 0.0786 0.0163 35.3801 34.9108 16.6492 -76.0348 -3.3458 -28.9874 4.2147 0.0000 10.2082 0.5048 -3.7248 7.7232 33.1476 -0.0000 26.2537 -7.3122 -6.3655 -31.7921 -18.6485 5.4029 35.5173 -0.2406 -0.0000 17.7302 0.0375 1.8854 -1.1399 32.8623 0.0000 -24.3270 4.5362 -5.0022 0.8445 -4.3057 -0.0000 -0.0000 -2.4432 11.9087 -15.1330 -9.9256 -0.0000 -0.0000 4.8040 0.5890 4.2594 -4.6856 0.0000 0.0000 -4.2786 -14.9415 4.1465 -3.6618 0.0000 -0.0000
 -0.7333 32.8918 0.5026 3.2253 2.6786 -1.2526 -6.6436 -6.0439 -1.2535 16.2143 0.1055 0.0409 35.3158 34.9049 16.7391 -76.0111 -3.3491 -28.9689 4.3362 0.0000 10.1367 0.4939 -3.7126 7.5824 33.1476 -0.0000 26.2537 -7.3420 -6.3413 -31.7971 -18.6875 5.4076 35.4580 -0.3007 -0.0000 17.8181 0.0359 1.8942 -1.0851 32.8623 0.0000 -24.3270 4.5333 -4.9695 0.8282 -4.2794 -0.0000 0.0000 -2.4432 11.8592 -15.1936 -10.0286 -0.0000 0.0000 4.8008 0.6389 4.2370 -4.6455 0.0000 -0.0000 -4.3385 -14.9795 4.1401 -3.6261 -0.0000 0.0000
 -0.7317 32.8911 0.5024 3.2113 2.6947 -1.2498 -6.6116 -6.0490 -1.2570 16.2970 0.1185 0.0766 35.2286 34.9081 16.8443 -76.0118 -3.3312 -28.9505 4.4258 0.0000 10.1668 0.4693 -3.6262 7.3797 33.1476 -0.0000 26.2537 -7.3430 -6.3270 -31.7887 -18.6517 5.5076 35.3621 -0.3854 -0.0000 17.7294 0.0364 1.9759 -1.0549 32.8623 0.0000 -24.3270 4.5383 -4.9319 0.8239 -4.2614 -0.0000 0.0000 -2.4568 11.7855 -15.2175 -10.0150 0.0000 -0.0000 4.7998 0.6774 4.2240 -4.6096 0.0000 0.0000 -4.3752 -14.9971 4.1799 -3.6359 -0.0000 -0.0000
 -0.7287 32.8910 0.5015 3.2062 2.7121 -1.2413 -6.5915 -6.0530 -1.2581 16.3920 0.1165 0.0776 35.1509 34.8993 16.9308 -75.9646 -3.3910 -28.9076 4.5772 0.0000 10.0764 0.4466 -3.6094 7.0576 33.1476 -0.0000 26.2537 -7.3767 -6.2983 -31.8259 -18.6513 5.5283 35.2966 -0.4014 -0.0000 17.7578 0.0347 1.8459 -1.0764 32.8623 0.0000 -24.3270 4.5333 -4.9221 0.8088 -4.2494 -0.0000 -0.0000 -2.4571 11.7718 -15.2042 -10.0225 -0.0000 -0.0000 4.7853 0.6936 4.2054 -4.5631 -0.0000 0.0000 -4.4285 -15.0093 4.2008 -3.6115 0.0000 0.0000
 -0.7264 32.8913 0.5011 3.1951 2.7361 -1.2309 -6.5660 -6.0530 -1.2664 16.5176 0.1104 0.1000 35.0619 34.8806 17.0450 -75.9365 -3.4350 -28.8551 4.7211 0.0000 9.9988 0.4188 -3.5970 6.6461 33.1476 -0.0000 26.2537 -7.4151 -6.2402 -31.8384 -18.6653 5.4892 35.1709 -0.4203 -0.0000 17.8389 0.0299 1.9185 -0.8929 32.8623 0.0000 -24.3270 4.5371 -4.9133 0.7971 -4.2419 0.0000 0.0000 -2.4572 11.7498 -15.2238 -9.9731 0.0000 0.0000 4.7806 0.7035 4.1854 -4.5213 -0.0000 -0.0000 -4.4697 -15.0144 4.2319 -3.6120 0.0000 -0.0000
 -0.7227 32.8913 0.5009 3.1917 2.7600 -1.2199 -6.5556 -6.0543 -1.2699 16.6801 0.0951 0.1183 34.9824 34.8665 17.1523 -75.9266 -3.4798 -28.7899 4.8219 0.0000 9.9710 0.3910 -3.5140 6.3532 33.1476 -0.0000 26.2537 -7.4246 -6.2114 -31.8711 -18.6654 5.5258 35.0509 -0.4617 -0.0000 17.8752 0.0318 1.9637 -0.9288 32.8623 0.0000 -24.3270 4.5325 -4.8992 0.7829 -4.2323 -0.0000 -0.0000 -2.4456 11.7059 -15.2883 -10.0660 -0.0000 0.0000 4.7685 0.7033 4.1631 -4.4733 -0.0000 -0.0000 -4.5121 -14.9995 4.2646 -3.5930 -0.0000 -0.0000
 -0.7195 32.8916 0.5014 3.1981 2.7866 -1.2066 -6.5552 -6.0660 -1.2774 16.8327 0.0773 0.1240 34.9095 34.8706 17.2425 -75.9514 -3.5414 -28.7092 4.9374 0.0000 9.9997 0.3697 -3.4406 6.1369 33.1476 -0.0000 26.2537 -7.4428 -6.1949 -31.9266 -18.7021 5.5593 34.9613 -0.4645 -0.0000 17.9206 0.0279 1.7616 -0.9086 32.8623 0.0000 -24.3270 4.5191 -4.8744 0.7649 -4.2261 0.0000 0.0000 -2.4434 11.6655 -15.3182 -10.0041 -0.0000 0.0000 4.7554 0.7171 4.1364 -4.4470 0.0000 0.0000 -4.5454 -15.0080 4.3011 -3.5889 -0.0000 -0.0000
